PathFileType	4	(X/Y/Z)	s01c0302.trc
DataRate	CameraRate	NumFrames	NumMarkers	Units	OrigDataRate	OrigDataStartFrame	OrigNumFrames
200	200	4	48	mm	200	0	2000
Frame#	Time	racr			lacr			c7			jug			rlel			rdr			llel			ldr			s2			lic			ric			lasi			rasi			rpsi			lpsi			rgt			lgt			rth1			rth2			rth3			rth4			rlfc			rsh1			rsh2			rsh3			rsh4			rlmal			rmmal			rcal			rtoe			rmt5			lth1			lth2			lth4			lth3			llfc			lsh1			lsh2			lsh3			lsh4			llmal			lmmal			lcal			ltoe			lmt5			SBIKE			LBIKE			RBIKE			
		X1	Y1	Z1	X2	Y2	Z2	X3	Y3	Z3	X4	Y4	Z4	X5	Y5	Z5	X6	Y6	Z6	X7	Y7	Z7	X8	Y8	Z8	X9	Y9	Z9	X10	Y10	Z10	X11	Y11	Z11	X12	Y12	Z12	X13	Y13	Z13	X14	Y14	Z14	X15	Y15	Z15	X16	Y16	Z16	X17	Y17	Z17	X18	Y18	Z18	X19	Y19	Z19	X20	Y20	Z20	X21	Y21	Z21	X22	Y22	Z22	X23	Y23	Z23	X24	Y24	Z24	X25	Y25	Z25	X26	Y26	Z26	X27	Y27	Z27	X28	Y28	Z28	X29	Y29	Z29	X30	Y30	Z30	X31	Y31	Z31	X32	Y32	Z32	X33	Y33	Z33	X34	Y34	Z34	X35	Y35	Z35	X36	Y36	Z36	X37	Y37	Z37	X38	Y38	Z38	X39	Y39	Z39	X40	Y40	Z40	X41	Y41	Z41	X42	Y42	Z42	X43	Y43	Z43	X44	Y44	Z44	X45	Y45	Z45	X46	Y46	Z46	X47	Y47	Z47	X48	Y48	Z48	
0	0.0000	492.156840	1336.279687	-134.751060	484.676366	1329.328304	-450.154305	446.034692	1388.714356	-283.457252	460.942211	1230.450593	-289.039095	568.458754	1068.552980	-43.817630	731.376538	862.176392	-81.047548	559.856113	1058.723451	-528.040733	720.146578	861.907187	-459.995409	-66.656914	1148.350868	-252.582927	130.469488	1162.763770	-457.969170	101.373019	1125.848979	-107.096616	93.817665	1105.385362	-411.319813	114.382981	1075.705406	-130.784508	-31.720262	1176.564168	-203.035873	-39.100024	1187.340286	-306.551484	23.239382	1010.035929	-78.174748	35.107389	1044.769800	-471.101837	88.646065	886.278405	-57.409940	134.724806	817.995964	-68.456539	179.279543	741.143177	-82.857668	180.700712	847.616607	-81.704549	209.960525	637.657221	-105.838554	141.825455	539.721759	-71.297186	109.358550	461.366403	-73.021320	66.485977	383.375481	-84.577118	152.081623	442.156070	-111.213313	8.269121	265.866146	-103.023575	55.243530	283.277227	-180.750869	-40.161588	232.761629	-157.473062	229.636197	207.803294	-142.454249	124.472654	180.896764	-73.467550	137.244313	974.590923	-471.544344	226.174340	969.906627	-476.390112	230.682079	1024.095524	-467.619658	310.407851	956.985556	-462.369128	414.863654	896.181183	-440.776573	331.175461	819.485762	-460.691262	291.689728	742.957995	-450.948607	251.555313	668.803278	-433.138998	343.679632	720.422169	-425.047409	196.323512	553.948945	-411.740245	226.390198	563.026045	-330.075729	144.185829	514.751035	-370.750321	420.713973	499.919999	-385.936115	314.595726	476.602887	-448.153464	-230.336475	890.353958	-255.866539	-22.756015	80.365799	-456.454593	-22.940848	80.490148	-56.070352	
1	0.0050	492.235266	1336.315934	-134.840734	484.708469	1329.356387	-450.153586	446.035829	1388.737184	-283.533325	460.996881	1230.426583	-289.060544	568.598778	1068.634097	-43.963463	731.365225	862.166419	-81.056482	560.054436	1058.823775	-528.004571	720.125948	861.854451	-460.046395	-66.640818	1148.338641	-252.584911	130.477453	1162.843413	-458.065266	101.374350	1125.830656	-107.097996	93.813562	1105.389613	-411.334720	114.407234	1075.636389	-130.802117	-31.999191	1176.834117	-202.738589	-39.081882	1187.342985	-306.562754	23.279903	1010.030983	-78.213035	35.091697	1044.777716	-471.116488	88.687622	886.287435	-57.422998	134.745483	818.020728	-68.477320	179.333516	741.153829	-82.886036	180.751238	847.618039	-81.733422	210.004527	637.678852	-105.874084	141.860651	539.753829	-71.319847	109.418472	461.387367	-73.037344	66.537276	383.384983	-84.566509	152.130506	442.164271	-111.214153	8.317421	265.878055	-103.022789	55.219335	283.258753	-180.793252	-40.090664	232.780363	-157.475033	229.654771	207.759686	-142.452475	124.500275	180.906661	-73.472906	137.252185	974.598150	-471.579909	226.158999	970.088264	-476.720500	230.706001	1024.127949	-467.662542	310.460412	957.016716	-462.372164	414.871572	896.202645	-440.817039	331.184196	819.506714	-460.721148	291.686005	742.990511	-450.969289	251.544897	668.828820	-433.142277	343.676306	720.447205	-425.046263	196.314032	553.976404	-411.747379	226.357940	563.050036	-330.087935	144.165987	514.784211	-370.740487	420.685514	499.934916	-385.946243	314.581471	476.624687	-448.142822	-230.331353	890.349338	-255.870868	-22.752505	80.367481	-456.456672	-22.949496	80.503038	-56.096924	
2	0.0100	492.293519	1336.401634	-134.941627	484.709150	1329.434453	-450.185184	446.025438	1388.477044	-283.648362	461.035111	1230.401977	-289.105948	568.729529	1068.716036	-44.087277	731.364728	862.169048	-81.081353	560.257066	1058.904583	-527.928603	720.115790	861.814013	-460.087905	-66.638877	1148.346613	-252.568409	130.417901	1162.761826	-457.955630	101.384216	1125.812392	-107.093096	93.797184	1105.367425	-411.344457	114.427327	1075.632454	-130.805094	-32.005259	1176.827001	-202.729638	-39.090879	1187.351123	-306.566935	23.300716	1010.043586	-78.209945	35.083477	1044.779926	-471.115196	88.720311	886.291120	-57.452374	134.775537	818.019330	-68.508446	179.376756	741.148761	-82.911677	180.775486	847.618983	-81.762129	210.067052	637.680104	-105.889870	141.944914	539.759751	-71.344973	109.474305	461.376789	-73.052011	66.622644	383.399768	-84.574481	152.187890	442.171522	-111.231224	8.355155	265.889393	-103.024356	55.155417	282.926992	-180.863600	-40.068929	232.810948	-157.469618	229.707633	207.741537	-142.457975	124.537764	180.893099	-73.469449	137.234603	974.615824	-471.588934	226.154316	970.106589	-476.744413	230.678288	1024.132135	-467.684214	310.505508	957.077476	-462.381759	414.867016	896.223008	-440.844789	331.162765	819.526321	-460.751444	291.751038	743.068802	-450.977424	251.524629	668.874365	-433.172664	343.649498	720.469735	-425.064499	196.311103	554.010971	-411.757872	226.387336	563.131080	-330.019254	144.122142	514.875519	-370.740595	420.671949	499.938668	-385.940052	314.565612	476.648716	-448.138393	-230.332020	890.352965	-255.861837	-22.713366	80.402689	-456.478250	-22.945820	80.499876	-56.094950	
3	0.0150	492.378544	1336.476402	-135.036857	484.225241	1328.939101	-450.095350	446.003520	1387.933815	-283.802391	461.109247	1230.379083	-289.150922	568.801374	1068.889714	-44.179100	731.359362	862.172939	-81.089306	560.654938	1059.028755	-527.583151	724.039473	863.589330	-465.096712	-66.633329	1148.350705	-252.587118	130.365765	1162.693343	-457.879530	101.482429	1125.959180	-107.010734	93.788808	1105.365593	-411.357225	114.701693	1075.771738	-130.804982	-33.111384	1177.838148	-201.570478	-39.798381	1187.585066	-306.180303	23.306275	1009.919007	-78.172453	35.139815	1044.709544	-471.147775	88.874722	886.395073	-57.146681	134.594218	818.481098	-68.250670	179.422183	741.145582	-82.924922	180.814318	847.729487	-81.676535	210.114599	637.685067	-105.919550	141.993679	539.759236	-71.360497	109.526059	461.357591	-73.077615	66.660111	383.398267	-84.568729	152.232588	442.169020	-111.247047	8.046501	266.064611	-103.308202	55.075808	282.870238	-180.916552	-40.031246	232.819358	-157.482037	229.729053	207.701868	-142.455891	124.564868	180.886463	-73.466056	137.348005	974.578184	-471.644081	226.136857	970.112049	-476.766877	230.748080	1024.142644	-467.721109	310.539683	957.133901	-462.397782	414.938945	896.391900	-440.761424	332.212429	819.689803	-461.465436	293.161010	742.313182	-451.472885	251.739068	668.974727	-433.170505	343.710201	719.911673	-426.259460	196.688230	554.078253	-411.831759	226.398640	563.185398	-329.994174	144.075527	514.962349	-370.742979	420.657970	499.943796	-385.949557	314.552215	476.687450	-448.134558	-230.236818	890.292767	-256.085842	-22.775495	80.493372	-456.472630	-22.943498	80.502097	-56.090803	
